<?xml version="1.0" encoding="utf-8" standalone="no"?>
<!DOCTYPE svg PUBLIC "-//W3C//DTD SVG 1.1//EN"
  "http://www.w3.org/Graphics/SVG/1.1/DTD/svg11.dtd">
<svg xmlns:xlink="http://www.w3.org/1999/xlink" width="715.15875pt" height="428.914453pt" viewBox="0 0 715.15875 428.914453" xmlns="http://www.w3.org/2000/svg" version="1.1">
 <metadata>
  <rdf:RDF xmlns:dc="http://purl.org/dc/elements/1.1/" xmlns:cc="http://creativecommons.org/ns#" xmlns:rdf="http://www.w3.org/1999/02/22-rdf-syntax-ns#">
   <cc:Work>
    <dc:type rdf:resource="http://purl.org/dc/dcmitype/StillImage"/>
    <dc:date>2026-07-20T13:03:30.945725</dc:date>
    <dc:format>image/svg+xml</dc:format>
    <dc:creator>
     <cc:Agent>
      <dc:title>Matplotlib v3.11.0, https://matplotlib.org/</dc:title>
     </cc:Agent>
    </dc:creator>
   </cc:Work>
  </rdf:RDF>
 </metadata>
 <defs>
  <style type="text/css">*{stroke-linejoin: round; stroke-linecap: butt}</style>
 </defs>
 <g id="figure_1">
  <g id="patch_1">
   <path d="M 0 428.914453 
L 715.15875 428.914453 
L 715.15875 0 
L 0 0 
z
" style="fill: #ffffff"/>
  </g>
  <g id="axes_1">
   <g id="patch_2">
    <path d="M 188.25875 395.213672 
L 707.95875 395.213672 
L 707.95875 22.318125 
L 188.25875 22.318125 
z
" style="fill: #ffffff"/>
   </g>
   <g id="matplotlib.axis_1">
    <g id="xtick_1">
     <g id="line2d_1">
      <defs>
       <path id="m71387845e2" d="M 0 0 
L 0 -4 
" style="stroke: #000000; stroke-width: 0.5"/>
      </defs>
      <g>
       <use xlink:href="#m71387845e2" x="188.25875" y="395.213672" style="stroke: #000000; stroke-width: 0.5"/>
      </g>
     </g>
     <g id="text_1">
      <!-- 0 -->
      <g transform="translate(185.395625 405.551562) scale(0.09 -0.09)">
       <defs>
        <path id="DejaVuSans-13" d="M 2034 4250 
Q 1547 4250 1301 3770 
Q 1056 3291 1056 2328 
Q 1056 1369 1301 889 
Q 1547 409 2034 409 
Q 2525 409 2770 889 
Q 3016 1369 3016 2328 
Q 3016 3291 2770 3770 
Q 2525 4250 2034 4250 
z
M 2034 4750 
Q 2819 4750 3233 4129 
Q 3647 3509 3647 2328 
Q 3647 1150 3233 529 
Q 2819 -91 2034 -91 
Q 1250 -91 836 529 
Q 422 1150 422 2328 
Q 422 3509 836 4129 
Q 1250 4750 2034 4750 
z
" transform="scale(0.015625)"/>
       </defs>
       <use xlink:href="#DejaVuSans-13"/>
      </g>
     </g>
    </g>
    <g id="xtick_2">
     <g id="line2d_2">
      <g>
       <use xlink:href="#m71387845e2" x="294.297827" y="395.213672" style="stroke: #000000; stroke-width: 0.5"/>
      </g>
     </g>
     <g id="text_2">
      <!-- 1 -->
      <g transform="translate(291.434702 405.551562) scale(0.09 -0.09)">
       <defs>
        <path id="DejaVuSans-14" d="M 794 531 
L 1825 531 
L 1825 4091 
L 703 3866 
L 703 4441 
L 1819 4666 
L 2450 4666 
L 2450 531 
L 3481 531 
L 3481 0 
L 794 0 
L 794 531 
z
" transform="scale(0.015625)"/>
       </defs>
       <use xlink:href="#DejaVuSans-14"/>
      </g>
     </g>
    </g>
    <g id="xtick_3">
     <g id="line2d_3">
      <g>
       <use xlink:href="#m71387845e2" x="400.336903" y="395.213672" style="stroke: #000000; stroke-width: 0.5"/>
      </g>
     </g>
     <g id="text_3">
      <!-- 2 -->
      <g transform="translate(397.473778 405.551562) scale(0.09 -0.09)">
       <defs>
        <path id="DejaVuSans-15" d="M 1228 531 
L 3431 531 
L 3431 0 
L 469 0 
L 469 531 
Q 828 903 1448 1529 
Q 2069 2156 2228 2338 
Q 2531 2678 2651 2914 
Q 2772 3150 2772 3378 
Q 2772 3750 2511 3984 
Q 2250 4219 1831 4219 
Q 1534 4219 1204 4116 
Q 875 4013 500 3803 
L 500 4441 
Q 881 4594 1212 4672 
Q 1544 4750 1819 4750 
Q 2544 4750 2975 4387 
Q 3406 4025 3406 3419 
Q 3406 3131 3298 2873 
Q 3191 2616 2906 2266 
Q 2828 2175 2409 1742 
Q 1991 1309 1228 531 
z
" transform="scale(0.015625)"/>
       </defs>
       <use xlink:href="#DejaVuSans-15"/>
      </g>
     </g>
    </g>
    <g id="xtick_4">
     <g id="line2d_4">
      <g>
       <use xlink:href="#m71387845e2" x="506.37598" y="395.213672" style="stroke: #000000; stroke-width: 0.5"/>
      </g>
     </g>
     <g id="text_4">
      <!-- 3 -->
      <g transform="translate(503.512855 405.551562) scale(0.09 -0.09)">
       <defs>
        <path id="DejaVuSans-16" d="M 2597 2516 
Q 3050 2419 3304 2112 
Q 3559 1806 3559 1356 
Q 3559 666 3084 287 
Q 2609 -91 1734 -91 
Q 1441 -91 1130 -33 
Q 819 25 488 141 
L 488 750 
Q 750 597 1062 519 
Q 1375 441 1716 441 
Q 2309 441 2620 675 
Q 2931 909 2931 1356 
Q 2931 1769 2642 2001 
Q 2353 2234 1838 2234 
L 1294 2234 
L 1294 2753 
L 1863 2753 
Q 2328 2753 2575 2939 
Q 2822 3125 2822 3475 
Q 2822 3834 2567 4026 
Q 2313 4219 1838 4219 
Q 1578 4219 1281 4162 
Q 984 4106 628 3988 
L 628 4550 
Q 988 4650 1302 4700 
Q 1616 4750 1894 4750 
Q 2613 4750 3031 4423 
Q 3450 4097 3450 3541 
Q 3450 3153 3228 2886 
Q 3006 2619 2597 2516 
z
" transform="scale(0.015625)"/>
       </defs>
       <use xlink:href="#DejaVuSans-16"/>
      </g>
     </g>
    </g>
    <g id="xtick_5">
     <g id="line2d_5">
      <g>
       <use xlink:href="#m71387845e2" x="612.415056" y="395.213672" style="stroke: #000000; stroke-width: 0.5"/>
      </g>
     </g>
     <g id="text_5">
      <!-- 4 -->
      <g transform="translate(609.551931 405.551562) scale(0.09 -0.09)">
       <defs>
        <path id="DejaVuSans-17" d="M 2419 4116 
L 825 1625 
L 2419 1625 
L 2419 4116 
z
M 2253 4666 
L 3047 4666 
L 3047 1625 
L 3713 1625 
L 3713 1100 
L 3047 1100 
L 3047 0 
L 2419 0 
L 2419 1100 
L 313 1100 
L 313 1709 
L 2253 4666 
z
" transform="scale(0.015625)"/>
       </defs>
       <use xlink:href="#DejaVuSans-17"/>
      </g>
     </g>
    </g>
    <g id="text_6">
     <!-- -log10(Q-value) -->
     <g transform="translate(409.015781 419.312109) scale(0.1 -0.1)">
      <defs>
       <path id="DejaVuSans-10" d="M 313 2009 
L 1997 2009 
L 1997 1497 
L 313 1497 
L 313 2009 
z
" transform="scale(0.015625)"/>
       <path id="DejaVuSans-4f" d="M 603 4863 
L 1178 4863 
L 1178 0 
L 603 0 
L 603 4863 
z
" transform="scale(0.015625)"/>
       <path id="DejaVuSans-52" d="M 1959 3097 
Q 1497 3097 1228 2736 
Q 959 2375 959 1747 
Q 959 1119 1226 758 
Q 1494 397 1959 397 
Q 2419 397 2687 759 
Q 2956 1122 2956 1747 
Q 2956 2369 2687 2733 
Q 2419 3097 1959 3097 
z
M 1959 3584 
Q 2709 3584 3137 3096 
Q 3566 2609 3566 1747 
Q 3566 888 3137 398 
Q 2709 -91 1959 -91 
Q 1206 -91 779 398 
Q 353 888 353 1747 
Q 353 2609 779 3096 
Q 1206 3584 1959 3584 
z
" transform="scale(0.015625)"/>
       <path id="DejaVuSans-4a" d="M 2906 1791 
Q 2906 2416 2648 2759 
Q 2391 3103 1925 3103 
Q 1463 3103 1205 2759 
Q 947 2416 947 1791 
Q 947 1169 1205 825 
Q 1463 481 1925 481 
Q 2391 481 2648 825 
Q 2906 1169 2906 1791 
z
M 3481 434 
Q 3481 -459 3084 -895 
Q 2688 -1331 1869 -1331 
Q 1566 -1331 1297 -1286 
Q 1028 -1241 775 -1147 
L 775 -588 
Q 1028 -725 1275 -790 
Q 1522 -856 1778 -856 
Q 2344 -856 2625 -561 
Q 2906 -266 2906 331 
L 2906 616 
Q 2728 306 2450 153 
Q 2172 0 1784 0 
Q 1141 0 747 490 
Q 353 981 353 1791 
Q 353 2603 747 3093 
Q 1141 3584 1784 3584 
Q 2172 3584 2450 3431 
Q 2728 3278 2906 2969 
L 2906 3500 
L 3481 3500 
L 3481 434 
z
" transform="scale(0.015625)"/>
       <path id="DejaVuSans-b" d="M 1984 4856 
Q 1566 4138 1362 3434 
Q 1159 2731 1159 2009 
Q 1159 1288 1364 580 
Q 1569 -128 1984 -844 
L 1484 -844 
Q 1016 -109 783 600 
Q 550 1309 550 2009 
Q 550 2706 781 3412 
Q 1013 4119 1484 4856 
L 1984 4856 
z
" transform="scale(0.015625)"/>
       <path id="DejaVuSans-34" d="M 2522 4238 
Q 1834 4238 1429 3725 
Q 1025 3213 1025 2328 
Q 1025 1447 1429 934 
Q 1834 422 2522 422 
Q 3209 422 3611 934 
Q 4013 1447 4013 2328 
Q 4013 3213 3611 3725 
Q 3209 4238 2522 4238 
z
M 3406 84 
L 4238 -825 
L 3475 -825 
L 2784 -78 
Q 2681 -84 2626 -87 
Q 2572 -91 2522 -91 
Q 1538 -91 948 567 
Q 359 1225 359 2328 
Q 359 3434 948 4092 
Q 1538 4750 2522 4750 
Q 3503 4750 4090 4092 
Q 4678 3434 4678 2328 
Q 4678 1516 4351 937 
Q 4025 359 3406 84 
z
" transform="scale(0.015625)"/>
       <path id="DejaVuSans-59" d="M 191 3500 
L 800 3500 
L 1894 563 
L 2988 3500 
L 3597 3500 
L 2284 0 
L 1503 0 
L 191 3500 
z
" transform="scale(0.015625)"/>
       <path id="DejaVuSans-44" d="M 2194 1759 
Q 1497 1759 1228 1600 
Q 959 1441 959 1056 
Q 959 750 1161 570 
Q 1363 391 1709 391 
Q 2188 391 2477 730 
Q 2766 1069 2766 1631 
L 2766 1759 
L 2194 1759 
z
M 3341 1997 
L 3341 0 
L 2766 0 
L 2766 531 
Q 2569 213 2275 61 
Q 1981 -91 1556 -91 
Q 1019 -91 701 211 
Q 384 513 384 1019 
Q 384 1609 779 1909 
Q 1175 2209 1959 2209 
L 2766 2209 
L 2766 2266 
Q 2766 2663 2505 2880 
Q 2244 3097 1772 3097 
Q 1472 3097 1187 3025 
Q 903 2953 641 2809 
L 641 3341 
Q 956 3463 1253 3523 
Q 1550 3584 1831 3584 
Q 2591 3584 2966 3190 
Q 3341 2797 3341 1997 
z
" transform="scale(0.015625)"/>
       <path id="DejaVuSans-58" d="M 544 1381 
L 544 3500 
L 1119 3500 
L 1119 1403 
Q 1119 906 1312 657 
Q 1506 409 1894 409 
Q 2359 409 2629 706 
Q 2900 1003 2900 1516 
L 2900 3500 
L 3475 3500 
L 3475 0 
L 2900 0 
L 2900 538 
Q 2691 219 2414 64 
Q 2138 -91 1772 -91 
Q 1169 -91 856 284 
Q 544 659 544 1381 
z
M 1991 3584 
L 1991 3584 
z
" transform="scale(0.015625)"/>
       <path id="DejaVuSans-48" d="M 3597 1894 
L 3597 1613 
L 953 1613 
Q 991 1019 1311 708 
Q 1631 397 2203 397 
Q 2534 397 2845 478 
Q 3156 559 3463 722 
L 3463 178 
Q 3153 47 2828 -22 
Q 2503 -91 2169 -91 
Q 1331 -91 842 396 
Q 353 884 353 1716 
Q 353 2575 817 3079 
Q 1281 3584 2069 3584 
Q 2775 3584 3186 3129 
Q 3597 2675 3597 1894 
z
M 3022 2063 
Q 3016 2534 2758 2815 
Q 2500 3097 2075 3097 
Q 1594 3097 1305 2825 
Q 1016 2553 972 2059 
L 3022 2063 
z
" transform="scale(0.015625)"/>
       <path id="DejaVuSans-c" d="M 513 4856 
L 1013 4856 
Q 1481 4119 1714 3412 
Q 1947 2706 1947 2009 
Q 1947 1309 1714 600 
Q 1481 -109 1013 -844 
L 513 -844 
Q 928 -128 1133 580 
Q 1338 1288 1338 2009 
Q 1338 2731 1133 3434 
Q 928 4138 513 4856 
z
" transform="scale(0.015625)"/>
      </defs>
      <use xlink:href="#DejaVuSans-10"/>
      <use xlink:href="#DejaVuSans-4f" transform="translate(36.078125 0)"/>
      <use xlink:href="#DejaVuSans-52" transform="translate(63.859375 0)"/>
      <use xlink:href="#DejaVuSans-4a" transform="translate(125.046875 0)"/>
      <use xlink:href="#DejaVuSans-14" transform="translate(188.53125 0)"/>
      <use xlink:href="#DejaVuSans-13" transform="translate(252.15625 0)"/>
      <use xlink:href="#DejaVuSans-b" transform="translate(315.78125 0)"/>
      <use xlink:href="#DejaVuSans-34" transform="translate(354.796875 0)"/>
      <use xlink:href="#DejaVuSans-10" transform="translate(436.296875 0)"/>
      <use xlink:href="#DejaVuSans-59" transform="translate(469.6875 0)"/>
      <use xlink:href="#DejaVuSans-44" transform="translate(528.875 0)"/>
      <use xlink:href="#DejaVuSans-4f" transform="translate(590.15625 0)"/>
      <use xlink:href="#DejaVuSans-58" transform="translate(617.9375 0)"/>
      <use xlink:href="#DejaVuSans-48" transform="translate(681.3125 0)"/>
      <use xlink:href="#DejaVuSans-c" transform="translate(742.84375 0)"/>
     </g>
    </g>
   </g>
   <g id="matplotlib.axis_2">
    <g id="ytick_1">
     <g id="line2d_6">
      <defs>
       <path id="mf358cb6a8c" d="M 0 0 
L 4 0 
" style="stroke: #000000; stroke-width: 0.5"/>
      </defs>
      <g>
       <use xlink:href="#mf358cb6a8c" x="188.25875" y="362.854967" style="stroke: #000000; stroke-width: 0.5"/>
      </g>
     </g>
     <g id="text_7">
      <!-- Focal adhesion -->
      <g transform="translate(117.701719 366.274264) scale(0.09 -0.09)">
       <defs>
        <path id="DejaVuSans-29" d="M 628 4666 
L 3309 4666 
L 3309 4134 
L 1259 4134 
L 1259 2759 
L 3109 2759 
L 3109 2228 
L 1259 2228 
L 1259 0 
L 628 0 
L 628 4666 
z
" transform="scale(0.015625)"/>
        <path id="DejaVuSans-46" d="M 3122 3366 
L 3122 2828 
Q 2878 2963 2633 3030 
Q 2388 3097 2138 3097 
Q 1578 3097 1268 2742 
Q 959 2388 959 1747 
Q 959 1106 1268 751 
Q 1578 397 2138 397 
Q 2388 397 2633 464 
Q 2878 531 3122 666 
L 3122 134 
Q 2881 22 2623 -34 
Q 2366 -91 2075 -91 
Q 1284 -91 818 406 
Q 353 903 353 1747 
Q 353 2603 823 3093 
Q 1294 3584 2113 3584 
Q 2378 3584 2631 3529 
Q 2884 3475 3122 3366 
z
" transform="scale(0.015625)"/>
        <path id="DejaVuSans-3" transform="scale(0.015625)"/>
        <path id="DejaVuSans-47" d="M 2906 2969 
L 2906 4863 
L 3481 4863 
L 3481 0 
L 2906 0 
L 2906 525 
Q 2725 213 2448 61 
Q 2172 -91 1784 -91 
Q 1150 -91 751 415 
Q 353 922 353 1747 
Q 353 2572 751 3078 
Q 1150 3584 1784 3584 
Q 2172 3584 2448 3432 
Q 2725 3281 2906 2969 
z
M 947 1747 
Q 947 1113 1208 752 
Q 1469 391 1925 391 
Q 2381 391 2643 752 
Q 2906 1113 2906 1747 
Q 2906 2381 2643 2742 
Q 2381 3103 1925 3103 
Q 1469 3103 1208 2742 
Q 947 2381 947 1747 
z
" transform="scale(0.015625)"/>
        <path id="DejaVuSans-4b" d="M 3513 2113 
L 3513 0 
L 2938 0 
L 2938 2094 
Q 2938 2591 2744 2837 
Q 2550 3084 2163 3084 
Q 1697 3084 1428 2787 
Q 1159 2491 1159 1978 
L 1159 0 
L 581 0 
L 581 4863 
L 1159 4863 
L 1159 2956 
Q 1366 3272 1645 3428 
Q 1925 3584 2291 3584 
Q 2894 3584 3203 3211 
Q 3513 2838 3513 2113 
z
" transform="scale(0.015625)"/>
        <path id="DejaVuSans-56" d="M 2834 3397 
L 2834 2853 
Q 2591 2978 2328 3040 
Q 2066 3103 1784 3103 
Q 1356 3103 1142 2972 
Q 928 2841 928 2578 
Q 928 2378 1081 2264 
Q 1234 2150 1697 2047 
L 1894 2003 
Q 2506 1872 2764 1633 
Q 3022 1394 3022 966 
Q 3022 478 2636 193 
Q 2250 -91 1575 -91 
Q 1294 -91 989 -36 
Q 684 19 347 128 
L 347 722 
Q 666 556 975 473 
Q 1284 391 1588 391 
Q 1994 391 2212 530 
Q 2431 669 2431 922 
Q 2431 1156 2273 1281 
Q 2116 1406 1581 1522 
L 1381 1569 
Q 847 1681 609 1914 
Q 372 2147 372 2553 
Q 372 3047 722 3315 
Q 1072 3584 1716 3584 
Q 2034 3584 2315 3537 
Q 2597 3491 2834 3397 
z
" transform="scale(0.015625)"/>
        <path id="DejaVuSans-4c" d="M 603 3500 
L 1178 3500 
L 1178 0 
L 603 0 
L 603 3500 
z
M 603 4863 
L 1178 4863 
L 1178 4134 
L 603 4134 
L 603 4863 
z
" transform="scale(0.015625)"/>
        <path id="DejaVuSans-51" d="M 3513 2113 
L 3513 0 
L 2938 0 
L 2938 2094 
Q 2938 2591 2744 2837 
Q 2550 3084 2163 3084 
Q 1697 3084 1428 2787 
Q 1159 2491 1159 1978 
L 1159 0 
L 581 0 
L 581 3500 
L 1159 3500 
L 1159 2956 
Q 1366 3272 1645 3428 
Q 1925 3584 2291 3584 
Q 2894 3584 3203 3211 
Q 3513 2838 3513 2113 
z
" transform="scale(0.015625)"/>
       </defs>
       <use xlink:href="#DejaVuSans-29"/>
       <use xlink:href="#DejaVuSans-52" transform="translate(53.953125 0)"/>
       <use xlink:href="#DejaVuSans-46" transform="translate(115.140625 0)"/>
       <use xlink:href="#DejaVuSans-44" transform="translate(170.125 0)"/>
       <use xlink:href="#DejaVuSans-4f" transform="translate(231.40625 0)"/>
       <use xlink:href="#DejaVuSans-3" transform="translate(259.1875 0)"/>
       <use xlink:href="#DejaVuSans-44" transform="translate(290.96875 0)"/>
       <use xlink:href="#DejaVuSans-47" transform="translate(352.25 0)"/>
       <use xlink:href="#DejaVuSans-4b" transform="translate(415.734375 0)"/>
       <use xlink:href="#DejaVuSans-48" transform="translate(479.109375 0)"/>
       <use xlink:href="#DejaVuSans-56" transform="translate(540.640625 0)"/>
       <use xlink:href="#DejaVuSans-4c" transform="translate(592.734375 0)"/>
       <use xlink:href="#DejaVuSans-52" transform="translate(620.515625 0)"/>
       <use xlink:href="#DejaVuSans-51" transform="translate(681.703125 0)"/>
      </g>
     </g>
    </g>
    <g id="ytick_2">
     <g id="line2d_7">
      <g>
       <use xlink:href="#mf358cb6a8c" x="188.25875" y="318.829519" style="stroke: #000000; stroke-width: 0.5"/>
      </g>
     </g>
     <g id="text_8">
      <!-- p53 signaling pathway -->
      <g transform="translate(82.669219 322.248816) scale(0.09 -0.09)">
       <defs>
        <path id="DejaVuSans-53" d="M 1159 525 
L 1159 -1331 
L 581 -1331 
L 581 3500 
L 1159 3500 
L 1159 2969 
Q 1341 3281 1617 3432 
Q 1894 3584 2278 3584 
Q 2916 3584 3314 3078 
Q 3713 2572 3713 1747 
Q 3713 922 3314 415 
Q 2916 -91 2278 -91 
Q 1894 -91 1617 61 
Q 1341 213 1159 525 
z
M 3116 1747 
Q 3116 2381 2855 2742 
Q 2594 3103 2138 3103 
Q 1681 3103 1420 2742 
Q 1159 2381 1159 1747 
Q 1159 1113 1420 752 
Q 1681 391 2138 391 
Q 2594 391 2855 752 
Q 3116 1113 3116 1747 
z
" transform="scale(0.015625)"/>
        <path id="DejaVuSans-18" d="M 691 4666 
L 3169 4666 
L 3169 4134 
L 1269 4134 
L 1269 2991 
Q 1406 3038 1543 3061 
Q 1681 3084 1819 3084 
Q 2600 3084 3056 2656 
Q 3513 2228 3513 1497 
Q 3513 744 3044 326 
Q 2575 -91 1722 -91 
Q 1428 -91 1123 -41 
Q 819 9 494 109 
L 494 744 
Q 775 591 1075 516 
Q 1375 441 1709 441 
Q 2250 441 2565 725 
Q 2881 1009 2881 1497 
Q 2881 1984 2565 2268 
Q 2250 2553 1709 2553 
Q 1456 2553 1204 2497 
Q 953 2441 691 2322 
L 691 4666 
z
" transform="scale(0.015625)"/>
        <path id="DejaVuSans-57" d="M 1172 4494 
L 1172 3500 
L 2356 3500 
L 2356 3053 
L 1172 3053 
L 1172 1153 
Q 1172 725 1289 603 
Q 1406 481 1766 481 
L 2356 481 
L 2356 0 
L 1766 0 
Q 1100 0 847 248 
Q 594 497 594 1153 
L 594 3053 
L 172 3053 
L 172 3500 
L 594 3500 
L 594 4494 
L 1172 4494 
z
" transform="scale(0.015625)"/>
        <path id="DejaVuSans-5a" d="M 269 3500 
L 844 3500 
L 1563 769 
L 2278 3500 
L 2956 3500 
L 3675 769 
L 4391 3500 
L 4966 3500 
L 4050 0 
L 3372 0 
L 2619 2869 
L 1863 0 
L 1184 0 
L 269 3500 
z
" transform="scale(0.015625)"/>
        <path id="DejaVuSans-5c" d="M 2059 -325 
Q 1816 -950 1584 -1140 
Q 1353 -1331 966 -1331 
L 506 -1331 
L 506 -850 
L 844 -850 
Q 1081 -850 1212 -737 
Q 1344 -625 1503 -206 
L 1606 56 
L 191 3500 
L 800 3500 
L 1894 763 
L 2988 3500 
L 3597 3500 
L 2059 -325 
z
" transform="scale(0.015625)"/>
       </defs>
       <use xlink:href="#DejaVuSans-53"/>
       <use xlink:href="#DejaVuSans-18" transform="translate(63.484375 0)"/>
       <use xlink:href="#DejaVuSans-16" transform="translate(127.109375 0)"/>
       <use xlink:href="#DejaVuSans-3" transform="translate(190.734375 0)"/>
       <use xlink:href="#DejaVuSans-56" transform="translate(222.515625 0)"/>
       <use xlink:href="#DejaVuSans-4c" transform="translate(274.609375 0)"/>
       <use xlink:href="#DejaVuSans-4a" transform="translate(302.390625 0)"/>
       <use xlink:href="#DejaVuSans-51" transform="translate(365.875 0)"/>
       <use xlink:href="#DejaVuSans-44" transform="translate(429.25 0)"/>
       <use xlink:href="#DejaVuSans-4f" transform="translate(490.53125 0)"/>
       <use xlink:href="#DejaVuSans-4c" transform="translate(518.3125 0)"/>
       <use xlink:href="#DejaVuSans-51" transform="translate(546.09375 0)"/>
       <use xlink:href="#DejaVuSans-4a" transform="translate(609.46875 0)"/>
       <use xlink:href="#DejaVuSans-3" transform="translate(672.953125 0)"/>
       <use xlink:href="#DejaVuSans-53" transform="translate(704.734375 0)"/>
       <use xlink:href="#DejaVuSans-44" transform="translate(768.21875 0)"/>
       <use xlink:href="#DejaVuSans-57" transform="translate(829.5 0)"/>
       <use xlink:href="#DejaVuSans-4b" transform="translate(868.703125 0)"/>
       <use xlink:href="#DejaVuSans-5a" transform="translate(932.078125 0)"/>
       <use xlink:href="#DejaVuSans-44" transform="translate(1013.859375 0)"/>
       <use xlink:href="#DejaVuSans-5c" transform="translate(1075.140625 0)"/>
      </g>
     </g>
    </g>
    <g id="ytick_3">
     <g id="line2d_8">
      <g>
       <use xlink:href="#mf358cb6a8c" x="188.25875" y="274.804071" style="stroke: #000000; stroke-width: 0.5"/>
      </g>
     </g>
     <g id="text_9">
      <!-- Apoptosis -->
      <g transform="translate(140.755781 278.223368) scale(0.09 -0.09)">
       <defs>
        <path id="DejaVuSans-24" d="M 2188 4044 
L 1331 1722 
L 3047 1722 
L 2188 4044 
z
M 1831 4666 
L 2547 4666 
L 4325 0 
L 3669 0 
L 3244 1197 
L 1141 1197 
L 716 0 
L 50 0 
L 1831 4666 
z
" transform="scale(0.015625)"/>
       </defs>
       <use xlink:href="#DejaVuSans-24"/>
       <use xlink:href="#DejaVuSans-53" transform="translate(68.40625 0)"/>
       <use xlink:href="#DejaVuSans-52" transform="translate(131.890625 0)"/>
       <use xlink:href="#DejaVuSans-53" transform="translate(193.078125 0)"/>
       <use xlink:href="#DejaVuSans-57" transform="translate(256.5625 0)"/>
       <use xlink:href="#DejaVuSans-52" transform="translate(295.765625 0)"/>
       <use xlink:href="#DejaVuSans-56" transform="translate(356.953125 0)"/>
       <use xlink:href="#DejaVuSans-4c" transform="translate(409.046875 0)"/>
       <use xlink:href="#DejaVuSans-56" transform="translate(436.828125 0)"/>
      </g>
     </g>
    </g>
    <g id="ytick_4">
     <g id="line2d_9">
      <g>
       <use xlink:href="#mf358cb6a8c" x="188.25875" y="230.778623" style="stroke: #000000; stroke-width: 0.5"/>
      </g>
     </g>
     <g id="text_10">
      <!-- Cytokine-cytokine receptor interaction -->
      <g transform="translate(11.279531 234.197919) scale(0.09 -0.09)">
       <defs>
        <path id="DejaVuSans-26" d="M 4122 4306 
L 4122 3641 
Q 3803 3938 3442 4084 
Q 3081 4231 2675 4231 
Q 1875 4231 1450 3742 
Q 1025 3253 1025 2328 
Q 1025 1406 1450 917 
Q 1875 428 2675 428 
Q 3081 428 3442 575 
Q 3803 722 4122 1019 
L 4122 359 
Q 3791 134 3420 21 
Q 3050 -91 2638 -91 
Q 1578 -91 968 557 
Q 359 1206 359 2328 
Q 359 3453 968 4101 
Q 1578 4750 2638 4750 
Q 3056 4750 3426 4639 
Q 3797 4528 4122 4306 
z
" transform="scale(0.015625)"/>
        <path id="DejaVuSans-4e" d="M 581 4863 
L 1159 4863 
L 1159 1991 
L 2875 3500 
L 3609 3500 
L 1753 1863 
L 3688 0 
L 2938 0 
L 1159 1709 
L 1159 0 
L 581 0 
L 581 4863 
z
" transform="scale(0.015625)"/>
        <path id="DejaVuSans-55" d="M 2631 2963 
Q 2534 3019 2420 3045 
Q 2306 3072 2169 3072 
Q 1681 3072 1420 2755 
Q 1159 2438 1159 1844 
L 1159 0 
L 581 0 
L 581 3500 
L 1159 3500 
L 1159 2956 
Q 1341 3275 1631 3429 
Q 1922 3584 2338 3584 
Q 2397 3584 2469 3576 
Q 2541 3569 2628 3553 
L 2631 2963 
z
" transform="scale(0.015625)"/>
       </defs>
       <use xlink:href="#DejaVuSans-26"/>
       <use xlink:href="#DejaVuSans-5c" transform="translate(69.828125 0)"/>
       <use xlink:href="#DejaVuSans-57" transform="translate(129.015625 0)"/>
       <use xlink:href="#DejaVuSans-52" transform="translate(168.21875 0)"/>
       <use xlink:href="#DejaVuSans-4e" transform="translate(229.40625 0)"/>
       <use xlink:href="#DejaVuSans-4c" transform="translate(287.3125 0)"/>
       <use xlink:href="#DejaVuSans-51" transform="translate(315.09375 0)"/>
       <use xlink:href="#DejaVuSans-48" transform="translate(378.46875 0)"/>
       <use xlink:href="#DejaVuSans-10" transform="translate(440 0)"/>
       <use xlink:href="#DejaVuSans-46" transform="translate(476.078125 0)"/>
       <use xlink:href="#DejaVuSans-5c" transform="translate(531.0625 0)"/>
       <use xlink:href="#DejaVuSans-57" transform="translate(590.25 0)"/>
       <use xlink:href="#DejaVuSans-52" transform="translate(629.453125 0)"/>
       <use xlink:href="#DejaVuSans-4e" transform="translate(690.640625 0)"/>
       <use xlink:href="#DejaVuSans-4c" transform="translate(748.546875 0)"/>
       <use xlink:href="#DejaVuSans-51" transform="translate(776.328125 0)"/>
       <use xlink:href="#DejaVuSans-48" transform="translate(839.703125 0)"/>
       <use xlink:href="#DejaVuSans-3" transform="translate(901.234375 0)"/>
       <use xlink:href="#DejaVuSans-55" transform="translate(933.015625 0)"/>
       <use xlink:href="#DejaVuSans-48" transform="translate(971.921875 0)"/>
       <use xlink:href="#DejaVuSans-46" transform="translate(1033.453125 0)"/>
       <use xlink:href="#DejaVuSans-48" transform="translate(1088.4375 0)"/>
       <use xlink:href="#DejaVuSans-53" transform="translate(1149.96875 0)"/>
       <use xlink:href="#DejaVuSans-57" transform="translate(1213.453125 0)"/>
       <use xlink:href="#DejaVuSans-52" transform="translate(1252.65625 0)"/>
       <use xlink:href="#DejaVuSans-55" transform="translate(1313.84375 0)"/>
       <use xlink:href="#DejaVuSans-3" transform="translate(1354.953125 0)"/>
       <use xlink:href="#DejaVuSans-4c" transform="translate(1386.734375 0)"/>
       <use xlink:href="#DejaVuSans-51" transform="translate(1414.515625 0)"/>
       <use xlink:href="#DejaVuSans-57" transform="translate(1477.890625 0)"/>
       <use xlink:href="#DejaVuSans-48" transform="translate(1517.09375 0)"/>
       <use xlink:href="#DejaVuSans-55" transform="translate(1578.625 0)"/>
       <use xlink:href="#DejaVuSans-44" transform="translate(1619.734375 0)"/>
       <use xlink:href="#DejaVuSans-46" transform="translate(1681.015625 0)"/>
       <use xlink:href="#DejaVuSans-57" transform="translate(1736 0)"/>
       <use xlink:href="#DejaVuSans-4c" transform="translate(1775.203125 0)"/>
       <use xlink:href="#DejaVuSans-52" transform="translate(1802.984375 0)"/>
       <use xlink:href="#DejaVuSans-51" transform="translate(1864.171875 0)"/>
      </g>
     </g>
    </g>
    <g id="ytick_5">
     <g id="line2d_10">
      <g>
       <use xlink:href="#mf358cb6a8c" x="188.25875" y="186.753174" style="stroke: #000000; stroke-width: 0.5"/>
      </g>
     </g>
     <g id="text_11">
      <!-- Complement and coagulation cascades -->
      <g transform="translate(7.2 190.172471) scale(0.09 -0.09)">
       <defs>
        <path id="DejaVuSans-50" d="M 3328 2828 
Q 3544 3216 3844 3400 
Q 4144 3584 4550 3584 
Q 5097 3584 5394 3201 
Q 5691 2819 5691 2113 
L 5691 0 
L 5113 0 
L 5113 2094 
Q 5113 2597 4934 2840 
Q 4756 3084 4391 3084 
Q 3944 3084 3684 2787 
Q 3425 2491 3425 1978 
L 3425 0 
L 2847 0 
L 2847 2094 
Q 2847 2600 2669 2842 
Q 2491 3084 2119 3084 
Q 1678 3084 1418 2786 
Q 1159 2488 1159 1978 
L 1159 0 
L 581 0 
L 581 3500 
L 1159 3500 
L 1159 2956 
Q 1356 3278 1631 3431 
Q 1906 3584 2284 3584 
Q 2666 3584 2933 3390 
Q 3200 3197 3328 2828 
z
" transform="scale(0.015625)"/>
       </defs>
       <use xlink:href="#DejaVuSans-26"/>
       <use xlink:href="#DejaVuSans-52" transform="translate(69.828125 0)"/>
       <use xlink:href="#DejaVuSans-50" transform="translate(131.015625 0)"/>
       <use xlink:href="#DejaVuSans-53" transform="translate(228.421875 0)"/>
       <use xlink:href="#DejaVuSans-4f" transform="translate(291.90625 0)"/>
       <use xlink:href="#DejaVuSans-48" transform="translate(319.6875 0)"/>
       <use xlink:href="#DejaVuSans-50" transform="translate(381.21875 0)"/>
       <use xlink:href="#DejaVuSans-48" transform="translate(478.625 0)"/>
       <use xlink:href="#DejaVuSans-51" transform="translate(540.15625 0)"/>
       <use xlink:href="#DejaVuSans-57" transform="translate(603.53125 0)"/>
       <use xlink:href="#DejaVuSans-3" transform="translate(642.734375 0)"/>
       <use xlink:href="#DejaVuSans-44" transform="translate(674.515625 0)"/>
       <use xlink:href="#DejaVuSans-51" transform="translate(735.796875 0)"/>
       <use xlink:href="#DejaVuSans-47" transform="translate(799.171875 0)"/>
       <use xlink:href="#DejaVuSans-3" transform="translate(862.65625 0)"/>
       <use xlink:href="#DejaVuSans-46" transform="translate(894.4375 0)"/>
       <use xlink:href="#DejaVuSans-52" transform="translate(949.421875 0)"/>
       <use xlink:href="#DejaVuSans-44" transform="translate(1010.609375 0)"/>
       <use xlink:href="#DejaVuSans-4a" transform="translate(1071.890625 0)"/>
       <use xlink:href="#DejaVuSans-58" transform="translate(1135.375 0)"/>
       <use xlink:href="#DejaVuSans-4f" transform="translate(1198.75 0)"/>
       <use xlink:href="#DejaVuSans-44" transform="translate(1226.53125 0)"/>
       <use xlink:href="#DejaVuSans-57" transform="translate(1287.8125 0)"/>
       <use xlink:href="#DejaVuSans-4c" transform="translate(1327.015625 0)"/>
       <use xlink:href="#DejaVuSans-52" transform="translate(1354.796875 0)"/>
       <use xlink:href="#DejaVuSans-51" transform="translate(1415.984375 0)"/>
       <use xlink:href="#DejaVuSans-3" transform="translate(1479.359375 0)"/>
       <use xlink:href="#DejaVuSans-46" transform="translate(1511.140625 0)"/>
       <use xlink:href="#DejaVuSans-44" transform="translate(1566.125 0)"/>
       <use xlink:href="#DejaVuSans-56" transform="translate(1627.40625 0)"/>
       <use xlink:href="#DejaVuSans-46" transform="translate(1679.5 0)"/>
       <use xlink:href="#DejaVuSans-44" transform="translate(1734.484375 0)"/>
       <use xlink:href="#DejaVuSans-47" transform="translate(1795.765625 0)"/>
       <use xlink:href="#DejaVuSans-48" transform="translate(1859.25 0)"/>
       <use xlink:href="#DejaVuSans-56" transform="translate(1920.78125 0)"/>
      </g>
     </g>
    </g>
    <g id="ytick_6">
     <g id="line2d_11">
      <g>
       <use xlink:href="#mf358cb6a8c" x="188.25875" y="142.727726" style="stroke: #000000; stroke-width: 0.5"/>
      </g>
     </g>
     <g id="text_12">
      <!-- Homologous recombination -->
      <g transform="translate(60.796406 146.147023) scale(0.09 -0.09)">
       <defs>
        <path id="DejaVuSans-2b" d="M 628 4666 
L 1259 4666 
L 1259 2753 
L 3553 2753 
L 3553 4666 
L 4184 4666 
L 4184 0 
L 3553 0 
L 3553 2222 
L 1259 2222 
L 1259 0 
L 628 0 
L 628 4666 
z
" transform="scale(0.015625)"/>
        <path id="DejaVuSans-45" d="M 3116 1747 
Q 3116 2381 2855 2742 
Q 2594 3103 2138 3103 
Q 1681 3103 1420 2742 
Q 1159 2381 1159 1747 
Q 1159 1113 1420 752 
Q 1681 391 2138 391 
Q 2594 391 2855 752 
Q 3116 1113 3116 1747 
z
M 1159 2969 
Q 1341 3281 1617 3432 
Q 1894 3584 2278 3584 
Q 2916 3584 3314 3078 
Q 3713 2572 3713 1747 
Q 3713 922 3314 415 
Q 2916 -91 2278 -91 
Q 1894 -91 1617 61 
Q 1341 213 1159 525 
L 1159 0 
L 581 0 
L 581 4863 
L 1159 4863 
L 1159 2969 
z
" transform="scale(0.015625)"/>
       </defs>
       <use xlink:href="#DejaVuSans-2b"/>
       <use xlink:href="#DejaVuSans-52" transform="translate(75.203125 0)"/>
       <use xlink:href="#DejaVuSans-50" transform="translate(136.390625 0)"/>
       <use xlink:href="#DejaVuSans-52" transform="translate(233.796875 0)"/>
       <use xlink:href="#DejaVuSans-4f" transform="translate(294.984375 0)"/>
       <use xlink:href="#DejaVuSans-52" transform="translate(322.765625 0)"/>
       <use xlink:href="#DejaVuSans-4a" transform="translate(383.953125 0)"/>
       <use xlink:href="#DejaVuSans-52" transform="translate(447.4375 0)"/>
       <use xlink:href="#DejaVuSans-58" transform="translate(508.625 0)"/>
       <use xlink:href="#DejaVuSans-56" transform="translate(572 0)"/>
       <use xlink:href="#DejaVuSans-3" transform="translate(624.09375 0)"/>
       <use xlink:href="#DejaVuSans-55" transform="translate(655.875 0)"/>
       <use xlink:href="#DejaVuSans-48" transform="translate(694.78125 0)"/>
       <use xlink:href="#DejaVuSans-46" transform="translate(756.3125 0)"/>
       <use xlink:href="#DejaVuSans-52" transform="translate(811.296875 0)"/>
       <use xlink:href="#DejaVuSans-50" transform="translate(872.484375 0)"/>
       <use xlink:href="#DejaVuSans-45" transform="translate(969.890625 0)"/>
       <use xlink:href="#DejaVuSans-4c" transform="translate(1033.375 0)"/>
       <use xlink:href="#DejaVuSans-51" transform="translate(1061.15625 0)"/>
       <use xlink:href="#DejaVuSans-44" transform="translate(1124.53125 0)"/>
       <use xlink:href="#DejaVuSans-57" transform="translate(1185.8125 0)"/>
       <use xlink:href="#DejaVuSans-4c" transform="translate(1225.015625 0)"/>
       <use xlink:href="#DejaVuSans-52" transform="translate(1252.796875 0)"/>
       <use xlink:href="#DejaVuSans-51" transform="translate(1313.984375 0)"/>
      </g>
     </g>
    </g>
    <g id="ytick_7">
     <g id="line2d_12">
      <g>
       <use xlink:href="#mf358cb6a8c" x="188.25875" y="98.702278" style="stroke: #000000; stroke-width: 0.5"/>
      </g>
     </g>
     <g id="text_13">
      <!-- DNA replication -->
      <g transform="translate(114.622031 102.121575) scale(0.09 -0.09)">
       <defs>
        <path id="DejaVuSans-27" d="M 1259 4147 
L 1259 519 
L 2022 519 
Q 2988 519 3436 956 
Q 3884 1394 3884 2338 
Q 3884 3275 3436 3711 
Q 2988 4147 2022 4147 
L 1259 4147 
z
M 628 4666 
L 1925 4666 
Q 3281 4666 3915 4102 
Q 4550 3538 4550 2338 
Q 4550 1131 3912 565 
Q 3275 0 1925 0 
L 628 0 
L 628 4666 
z
" transform="scale(0.015625)"/>
        <path id="DejaVuSans-31" d="M 628 4666 
L 1478 4666 
L 3547 763 
L 3547 4666 
L 4159 4666 
L 4159 0 
L 3309 0 
L 1241 3903 
L 1241 0 
L 628 0 
L 628 4666 
z
" transform="scale(0.015625)"/>
       </defs>
       <use xlink:href="#DejaVuSans-27"/>
       <use xlink:href="#DejaVuSans-31" transform="translate(77 0)"/>
       <use xlink:href="#DejaVuSans-24" transform="translate(151.8125 0)"/>
       <use xlink:href="#DejaVuSans-3" transform="translate(220.21875 0)"/>
       <use xlink:href="#DejaVuSans-55" transform="translate(252 0)"/>
       <use xlink:href="#DejaVuSans-48" transform="translate(290.90625 0)"/>
       <use xlink:href="#DejaVuSans-53" transform="translate(352.4375 0)"/>
       <use xlink:href="#DejaVuSans-4f" transform="translate(415.921875 0)"/>
       <use xlink:href="#DejaVuSans-4c" transform="translate(443.703125 0)"/>
       <use xlink:href="#DejaVuSans-46" transform="translate(471.484375 0)"/>
       <use xlink:href="#DejaVuSans-44" transform="translate(526.46875 0)"/>
       <use xlink:href="#DejaVuSans-57" transform="translate(587.75 0)"/>
       <use xlink:href="#DejaVuSans-4c" transform="translate(626.953125 0)"/>
       <use xlink:href="#DejaVuSans-52" transform="translate(654.734375 0)"/>
       <use xlink:href="#DejaVuSans-51" transform="translate(715.921875 0)"/>
      </g>
     </g>
    </g>
    <g id="ytick_8">
     <g id="line2d_13">
      <g>
       <use xlink:href="#mf358cb6a8c" x="188.25875" y="54.676829" style="stroke: #000000; stroke-width: 0.5"/>
      </g>
     </g>
     <g id="text_14">
      <!-- Cell cycle -->
      <g transform="translate(141.813281 58.096126) scale(0.09 -0.09)">
       <use xlink:href="#DejaVuSans-26"/>
       <use xlink:href="#DejaVuSans-48" transform="translate(69.828125 0)"/>
       <use xlink:href="#DejaVuSans-4f" transform="translate(131.359375 0)"/>
       <use xlink:href="#DejaVuSans-4f" transform="translate(159.140625 0)"/>
       <use xlink:href="#DejaVuSans-3" transform="translate(186.921875 0)"/>
       <use xlink:href="#DejaVuSans-46" transform="translate(218.703125 0)"/>
       <use xlink:href="#DejaVuSans-5c" transform="translate(273.6875 0)"/>
       <use xlink:href="#DejaVuSans-46" transform="translate(332.875 0)"/>
       <use xlink:href="#DejaVuSans-4f" transform="translate(387.859375 0)"/>
       <use xlink:href="#DejaVuSans-48" transform="translate(415.640625 0)"/>
      </g>
     </g>
    </g>
   </g>
   <g id="patch_3">
    <path d="M 188.25875 378.263874 
L 356.333512 378.263874 
L 356.333512 347.44606 
L 188.25875 347.44606 
z
" clip-path="url(#p2be5646642)"/>
   </g>
   <g id="patch_4">
    <path d="M 188.25875 334.238426 
L 373.268042 334.238426 
L 373.268042 303.420612 
L 188.25875 303.420612 
z
" clip-path="url(#p2be5646642)"/>
   </g>
   <g id="patch_5">
    <path d="M 188.25875 290.212978 
L 395.947661 290.212978 
L 395.947661 259.395164 
L 188.25875 259.395164 
z
" clip-path="url(#p2be5646642)"/>
   </g>
   <g id="patch_6">
    <path d="M 188.25875 246.187529 
L 420.175398 246.187529 
L 420.175398 215.369716 
L 188.25875 215.369716 
z
" clip-path="url(#p2be5646642)" style="fill: #009e73"/>
   </g>
   <g id="patch_7">
    <path d="M 188.25875 202.162081 
L 440.2872 202.162081 
L 440.2872 171.344267 
L 188.25875 171.344267 
z
" clip-path="url(#p2be5646642)" style="fill: #56b4e9"/>
   </g>
   <g id="patch_8">
    <path d="M 188.25875 158.136633 
L 501.986738 158.136633 
L 501.986738 127.318819 
L 188.25875 127.318819 
z
" clip-path="url(#p2be5646642)" style="fill: #e69f00"/>
   </g>
   <g id="patch_9">
    <path d="M 188.25875 114.111185 
L 560.311516 114.111185 
L 560.311516 83.293371 
L 188.25875 83.293371 
z
" clip-path="url(#p2be5646642)" style="fill: #e69f00"/>
   </g>
   <g id="patch_10">
    <path d="M 188.25875 70.085736 
L 604.01875 70.085736 
L 604.01875 39.267923 
L 188.25875 39.267923 
z
" clip-path="url(#p2be5646642)"/>
   </g>
   <g id="patch_11">
    <path d="M 188.25875 395.213672 
L 188.25875 22.318125 
" style="fill: none; stroke: #333333; stroke-width: 0.5; stroke-linejoin: miter; stroke-linecap: square"/>
   </g>
   <g id="patch_12">
    <path d="M 188.25875 395.213672 
L 707.95875 395.213672 
" style="fill: none; stroke: #333333; stroke-width: 0.5; stroke-linejoin: miter; stroke-linecap: square"/>
   </g>
   <g id="text_15">
    <!-- 12/1.85 -->
    <g style="fill: #333333" transform="translate(361.635466 364.933092) scale(0.08 -0.08)">
     <defs>
      <path id="DejaVuSans-12" d="M 1625 4666 
L 2156 4666 
L 531 -594 
L 0 -594 
L 1625 4666 
z
" transform="scale(0.015625)"/>
      <path id="DejaVuSans-11" d="M 684 794 
L 1344 794 
L 1344 0 
L 684 0 
L 684 794 
z
" transform="scale(0.015625)"/>
      <path id="DejaVuSans-1b" d="M 2034 2216 
Q 1584 2216 1326 1975 
Q 1069 1734 1069 1313 
Q 1069 891 1326 650 
Q 1584 409 2034 409 
Q 2484 409 2743 651 
Q 3003 894 3003 1313 
Q 3003 1734 2745 1975 
Q 2488 2216 2034 2216 
z
M 1403 2484 
Q 997 2584 770 2862 
Q 544 3141 544 3541 
Q 544 4100 942 4425 
Q 1341 4750 2034 4750 
Q 2731 4750 3128 4425 
Q 3525 4100 3525 3541 
Q 3525 3141 3298 2862 
Q 3072 2584 2669 2484 
Q 3125 2378 3379 2068 
Q 3634 1759 3634 1313 
Q 3634 634 3220 271 
Q 2806 -91 2034 -91 
Q 1263 -91 848 271 
Q 434 634 434 1313 
Q 434 1759 690 2068 
Q 947 2378 1403 2484 
z
M 1172 3481 
Q 1172 3119 1398 2916 
Q 1625 2713 2034 2713 
Q 2441 2713 2670 2916 
Q 2900 3119 2900 3481 
Q 2900 3844 2670 4047 
Q 2441 4250 2034 4250 
Q 1625 4250 1398 4047 
Q 1172 3844 1172 3481 
z
" transform="scale(0.015625)"/>
     </defs>
     <use xlink:href="#DejaVuSans-14"/>
     <use xlink:href="#DejaVuSans-15" transform="translate(63.625 0)"/>
     <use xlink:href="#DejaVuSans-12" transform="translate(127.25 0)"/>
     <use xlink:href="#DejaVuSans-14" transform="translate(160.9375 0)"/>
     <use xlink:href="#DejaVuSans-11" transform="translate(224.5625 0)"/>
     <use xlink:href="#DejaVuSans-1b" transform="translate(256.34375 0)"/>
     <use xlink:href="#DejaVuSans-18" transform="translate(319.96875 0)"/>
    </g>
   </g>
   <g id="text_16">
    <!-- 8/2.15 -->
    <g style="fill: #333333" transform="translate(378.569996 320.907644) scale(0.08 -0.08)">
     <use xlink:href="#DejaVuSans-1b"/>
     <use xlink:href="#DejaVuSans-12" transform="translate(63.625 0)"/>
     <use xlink:href="#DejaVuSans-15" transform="translate(97.3125 0)"/>
     <use xlink:href="#DejaVuSans-11" transform="translate(160.9375 0)"/>
     <use xlink:href="#DejaVuSans-14" transform="translate(192.71875 0)"/>
     <use xlink:href="#DejaVuSans-18" transform="translate(256.34375 0)"/>
    </g>
   </g>
   <g id="text_17">
    <!-- 10/2.30 -->
    <g style="fill: #333333" transform="translate(401.249615 276.882196) scale(0.08 -0.08)">
     <use xlink:href="#DejaVuSans-14"/>
     <use xlink:href="#DejaVuSans-13" transform="translate(63.625 0)"/>
     <use xlink:href="#DejaVuSans-12" transform="translate(127.25 0)"/>
     <use xlink:href="#DejaVuSans-15" transform="translate(160.9375 0)"/>
     <use xlink:href="#DejaVuSans-11" transform="translate(224.5625 0)"/>
     <use xlink:href="#DejaVuSans-16" transform="translate(256.34375 0)"/>
     <use xlink:href="#DejaVuSans-13" transform="translate(319.96875 0)"/>
    </g>
   </g>
   <g id="text_18">
    <!-- 13/2.55 -->
    <g style="fill: #333333" transform="translate(425.477352 232.856748) scale(0.08 -0.08)">
     <use xlink:href="#DejaVuSans-14"/>
     <use xlink:href="#DejaVuSans-16" transform="translate(63.625 0)"/>
     <use xlink:href="#DejaVuSans-12" transform="translate(127.25 0)"/>
     <use xlink:href="#DejaVuSans-15" transform="translate(160.9375 0)"/>
     <use xlink:href="#DejaVuSans-11" transform="translate(224.5625 0)"/>
     <use xlink:href="#DejaVuSans-18" transform="translate(256.34375 0)"/>
     <use xlink:href="#DejaVuSans-18" transform="translate(319.96875 0)"/>
    </g>
   </g>
   <g id="text_19">
    <!-- 9/2.95 -->
    <g style="fill: #333333" transform="translate(445.589154 188.831299) scale(0.08 -0.08)">
     <defs>
      <path id="DejaVuSans-1c" d="M 703 97 
L 703 672 
Q 941 559 1184 500 
Q 1428 441 1663 441 
Q 2288 441 2617 861 
Q 2947 1281 2994 2138 
Q 2813 1869 2534 1725 
Q 2256 1581 1919 1581 
Q 1219 1581 811 2004 
Q 403 2428 403 3163 
Q 403 3881 828 4315 
Q 1253 4750 1959 4750 
Q 2769 4750 3195 4129 
Q 3622 3509 3622 2328 
Q 3622 1225 3098 567 
Q 2575 -91 1691 -91 
Q 1453 -91 1209 -44 
Q 966 3 703 97 
z
M 1959 2075 
Q 2384 2075 2632 2365 
Q 2881 2656 2881 3163 
Q 2881 3666 2632 3958 
Q 2384 4250 1959 4250 
Q 1534 4250 1286 3958 
Q 1038 3666 1038 3163 
Q 1038 2656 1286 2365 
Q 1534 2075 1959 2075 
z
" transform="scale(0.015625)"/>
     </defs>
     <use xlink:href="#DejaVuSans-1c"/>
     <use xlink:href="#DejaVuSans-12" transform="translate(63.625 0)"/>
     <use xlink:href="#DejaVuSans-15" transform="translate(97.3125 0)"/>
     <use xlink:href="#DejaVuSans-11" transform="translate(160.9375 0)"/>
     <use xlink:href="#DejaVuSans-1c" transform="translate(192.71875 0)"/>
     <use xlink:href="#DejaVuSans-18" transform="translate(256.34375 0)"/>
    </g>
   </g>
   <g id="text_20">
    <!-- 11/3.80 -->
    <g style="fill: #333333" transform="translate(507.288691 144.805851) scale(0.08 -0.08)">
     <use xlink:href="#DejaVuSans-14"/>
     <use xlink:href="#DejaVuSans-14" transform="translate(63.625 0)"/>
     <use xlink:href="#DejaVuSans-12" transform="translate(127.25 0)"/>
     <use xlink:href="#DejaVuSans-16" transform="translate(160.9375 0)"/>
     <use xlink:href="#DejaVuSans-11" transform="translate(224.5625 0)"/>
     <use xlink:href="#DejaVuSans-1b" transform="translate(256.34375 0)"/>
     <use xlink:href="#DejaVuSans-13" transform="translate(319.96875 0)"/>
    </g>
   </g>
   <g id="text_21">
    <!-- 14/4.35 -->
    <g style="fill: #333333" transform="translate(565.61347 100.780403) scale(0.08 -0.08)">
     <use xlink:href="#DejaVuSans-14"/>
     <use xlink:href="#DejaVuSans-17" transform="translate(63.625 0)"/>
     <use xlink:href="#DejaVuSans-12" transform="translate(127.25 0)"/>
     <use xlink:href="#DejaVuSans-17" transform="translate(160.9375 0)"/>
     <use xlink:href="#DejaVuSans-11" transform="translate(224.5625 0)"/>
     <use xlink:href="#DejaVuSans-16" transform="translate(256.34375 0)"/>
     <use xlink:href="#DejaVuSans-18" transform="translate(319.96875 0)"/>
    </g>
   </g>
   <g id="text_22">
    <!-- 18/4.80 -->
    <g style="fill: #333333" transform="translate(609.320704 56.754954) scale(0.08 -0.08)">
     <use xlink:href="#DejaVuSans-14"/>
     <use xlink:href="#DejaVuSans-1b" transform="translate(63.625 0)"/>
     <use xlink:href="#DejaVuSans-12" transform="translate(127.25 0)"/>
     <use xlink:href="#DejaVuSans-17" transform="translate(160.9375 0)"/>
     <use xlink:href="#DejaVuSans-11" transform="translate(224.5625 0)"/>
     <use xlink:href="#DejaVuSans-1b" transform="translate(256.34375 0)"/>
     <use xlink:href="#DejaVuSans-13" transform="translate(319.96875 0)"/>
    </g>
   </g>
   <g id="text_23">
    <!-- Example ORA: KEGG enriched pathways -->
    <g transform="translate(313.668437 16.318125) scale(0.12 -0.12)">
     <defs>
      <path id="DejaVuSans-Bold-28" d="M 588 4666 
L 3834 4666 
L 3834 3756 
L 1791 3756 
L 1791 2888 
L 3713 2888 
L 3713 1978 
L 1791 1978 
L 1791 909 
L 3903 909 
L 3903 0 
L 588 0 
L 588 4666 
z
" transform="scale(0.015625)"/>
      <path id="DejaVuSans-Bold-5b" d="M 1422 1791 
L 159 3500 
L 1344 3500 
L 2059 2463 
L 2784 3500 
L 3969 3500 
L 2706 1797 
L 4031 0 
L 2847 0 
L 2059 1106 
L 1281 0 
L 97 0 
L 1422 1791 
z
" transform="scale(0.015625)"/>
      <path id="DejaVuSans-Bold-44" d="M 2106 1575 
Q 1756 1575 1579 1456 
Q 1403 1338 1403 1106 
Q 1403 894 1545 773 
Q 1688 653 1941 653 
Q 2256 653 2472 879 
Q 2688 1106 2688 1447 
L 2688 1575 
L 2106 1575 
z
M 3816 1997 
L 3816 0 
L 2688 0 
L 2688 519 
Q 2463 200 2181 54 
Q 1900 -91 1497 -91 
Q 953 -91 614 226 
Q 275 544 275 1050 
Q 275 1666 698 1953 
Q 1122 2241 2028 2241 
L 2688 2241 
L 2688 2328 
Q 2688 2594 2478 2717 
Q 2269 2841 1825 2841 
Q 1466 2841 1156 2769 
Q 847 2697 581 2553 
L 581 3406 
Q 941 3494 1303 3539 
Q 1666 3584 2028 3584 
Q 2975 3584 3395 3211 
Q 3816 2838 3816 1997 
z
" transform="scale(0.015625)"/>
      <path id="DejaVuSans-Bold-50" d="M 3781 2919 
Q 3994 3244 4286 3414 
Q 4578 3584 4928 3584 
Q 5531 3584 5847 3212 
Q 6163 2841 6163 2131 
L 6163 0 
L 5038 0 
L 5038 1825 
Q 5041 1866 5042 1909 
Q 5044 1953 5044 2034 
Q 5044 2406 4934 2573 
Q 4825 2741 4581 2741 
Q 4263 2741 4089 2478 
Q 3916 2216 3909 1719 
L 3909 0 
L 2784 0 
L 2784 1825 
Q 2784 2406 2684 2573 
Q 2584 2741 2328 2741 
Q 2006 2741 1831 2477 
Q 1656 2213 1656 1722 
L 1656 0 
L 531 0 
L 531 3500 
L 1656 3500 
L 1656 2988 
Q 1863 3284 2130 3434 
Q 2397 3584 2719 3584 
Q 3081 3584 3359 3409 
Q 3638 3234 3781 2919 
z
" transform="scale(0.015625)"/>
      <path id="DejaVuSans-Bold-53" d="M 1656 506 
L 1656 -1331 
L 538 -1331 
L 538 3500 
L 1656 3500 
L 1656 2988 
Q 1888 3294 2169 3439 
Q 2450 3584 2816 3584 
Q 3463 3584 3878 3070 
Q 4294 2556 4294 1747 
Q 4294 938 3878 423 
Q 3463 -91 2816 -91 
Q 2450 -91 2169 54 
Q 1888 200 1656 506 
z
M 2400 2772 
Q 2041 2772 1848 2508 
Q 1656 2244 1656 1747 
Q 1656 1250 1848 986 
Q 2041 722 2400 722 
Q 2759 722 2948 984 
Q 3138 1247 3138 1747 
Q 3138 2247 2948 2509 
Q 2759 2772 2400 2772 
z
" transform="scale(0.015625)"/>
      <path id="DejaVuSans-Bold-4f" d="M 538 4863 
L 1656 4863 
L 1656 0 
L 538 0 
L 538 4863 
z
" transform="scale(0.015625)"/>
      <path id="DejaVuSans-Bold-48" d="M 4031 1759 
L 4031 1441 
L 1416 1441 
Q 1456 1047 1700 850 
Q 1944 653 2381 653 
Q 2734 653 3104 758 
Q 3475 863 3866 1075 
L 3866 213 
Q 3469 63 3072 -14 
Q 2675 -91 2278 -91 
Q 1328 -91 801 392 
Q 275 875 275 1747 
Q 275 2603 792 3093 
Q 1309 3584 2216 3584 
Q 3041 3584 3536 3087 
Q 4031 2591 4031 1759 
z
M 2881 2131 
Q 2881 2450 2695 2645 
Q 2509 2841 2209 2841 
Q 1884 2841 1681 2658 
Q 1478 2475 1428 2131 
L 2881 2131 
z
" transform="scale(0.015625)"/>
      <path id="DejaVuSans-Bold-3" transform="scale(0.015625)"/>
      <path id="DejaVuSans-Bold-32" d="M 2719 3878 
Q 2169 3878 1866 3472 
Q 1563 3066 1563 2328 
Q 1563 1594 1866 1187 
Q 2169 781 2719 781 
Q 3272 781 3575 1187 
Q 3878 1594 3878 2328 
Q 3878 3066 3575 3472 
Q 3272 3878 2719 3878 
z
M 2719 4750 
Q 3844 4750 4481 4106 
Q 5119 3463 5119 2328 
Q 5119 1197 4481 553 
Q 3844 -91 2719 -91 
Q 1597 -91 958 553 
Q 319 1197 319 2328 
Q 319 3463 958 4106 
Q 1597 4750 2719 4750 
z
" transform="scale(0.015625)"/>
      <path id="DejaVuSans-Bold-35" d="M 2297 2597 
Q 2675 2597 2839 2737 
Q 3003 2878 3003 3200 
Q 3003 3519 2839 3656 
Q 2675 3794 2297 3794 
L 1791 3794 
L 1791 2597 
L 2297 2597 
z
M 1791 1766 
L 1791 0 
L 588 0 
L 588 4666 
L 2425 4666 
Q 3347 4666 3776 4356 
Q 4206 4047 4206 3378 
Q 4206 2916 3982 2619 
Q 3759 2322 3309 2181 
Q 3556 2125 3751 1926 
Q 3947 1728 4147 1325 
L 4800 0 
L 3519 0 
L 2950 1159 
Q 2778 1509 2601 1637 
Q 2425 1766 2131 1766 
L 1791 1766 
z
" transform="scale(0.015625)"/>
      <path id="DejaVuSans-Bold-24" d="M 3419 850 
L 1538 850 
L 1241 0 
L 31 0 
L 1759 4666 
L 3194 4666 
L 4922 0 
L 3713 0 
L 3419 850 
z
M 1838 1716 
L 3116 1716 
L 2478 3572 
L 1838 1716 
z
" transform="scale(0.015625)"/>
      <path id="DejaVuSans-Bold-1d" d="M 716 3500 
L 1844 3500 
L 1844 2291 
L 716 2291 
L 716 3500 
z
M 716 1209 
L 1844 1209 
L 1844 0 
L 716 0 
L 716 1209 
z
" transform="scale(0.015625)"/>
      <path id="DejaVuSans-Bold-2e" d="M 588 4666 
L 1791 4666 
L 1791 2963 
L 3525 4666 
L 4922 4666 
L 2675 2456 
L 5153 0 
L 3647 0 
L 1791 1838 
L 1791 0 
L 588 0 
L 588 4666 
z
" transform="scale(0.015625)"/>
      <path id="DejaVuSans-Bold-2a" d="M 4781 347 
Q 4331 128 3847 18 
Q 3363 -91 2847 -91 
Q 1681 -91 1000 561 
Q 319 1213 319 2328 
Q 319 3456 1012 4103 
Q 1706 4750 2913 4750 
Q 3378 4750 3804 4662 
Q 4231 4575 4609 4403 
L 4609 3438 
Q 4219 3659 3833 3768 
Q 3447 3878 3059 3878 
Q 2341 3878 1952 3476 
Q 1563 3075 1563 2328 
Q 1563 1588 1938 1184 
Q 2313 781 3003 781 
Q 3191 781 3352 804 
Q 3513 828 3641 878 
L 3641 1784 
L 2906 1784 
L 2906 2591 
L 4781 2591 
L 4781 347 
z
" transform="scale(0.015625)"/>
      <path id="DejaVuSans-Bold-51" d="M 4056 2131 
L 4056 0 
L 2931 0 
L 2931 347 
L 2931 1631 
Q 2931 2084 2911 2256 
Q 2891 2428 2841 2509 
Q 2775 2619 2662 2680 
Q 2550 2741 2406 2741 
Q 2056 2741 1856 2470 
Q 1656 2200 1656 1722 
L 1656 0 
L 538 0 
L 538 3500 
L 1656 3500 
L 1656 2988 
Q 1909 3294 2193 3439 
Q 2478 3584 2822 3584 
Q 3428 3584 3742 3212 
Q 4056 2841 4056 2131 
z
" transform="scale(0.015625)"/>
      <path id="DejaVuSans-Bold-55" d="M 3138 2547 
Q 2991 2616 2845 2648 
Q 2700 2681 2553 2681 
Q 2122 2681 1889 2404 
Q 1656 2128 1656 1613 
L 1656 0 
L 538 0 
L 538 3500 
L 1656 3500 
L 1656 2925 
Q 1872 3269 2151 3426 
Q 2431 3584 2822 3584 
Q 2878 3584 2943 3579 
Q 3009 3575 3134 3559 
L 3138 2547 
z
" transform="scale(0.015625)"/>
      <path id="DejaVuSans-Bold-4c" d="M 538 3500 
L 1656 3500 
L 1656 0 
L 538 0 
L 538 3500 
z
M 538 4863 
L 1656 4863 
L 1656 3950 
L 538 3950 
L 538 4863 
z
" transform="scale(0.015625)"/>
      <path id="DejaVuSans-Bold-46" d="M 3366 3391 
L 3366 2478 
Q 3138 2634 2908 2709 
Q 2678 2784 2431 2784 
Q 1963 2784 1702 2511 
Q 1441 2238 1441 1747 
Q 1441 1256 1702 982 
Q 1963 709 2431 709 
Q 2694 709 2930 787 
Q 3166 866 3366 1019 
L 3366 103 
Q 3103 6 2833 -42 
Q 2563 -91 2291 -91 
Q 1344 -91 809 395 
Q 275 881 275 1747 
Q 275 2613 809 3098 
Q 1344 3584 2291 3584 
Q 2566 3584 2833 3536 
Q 3100 3488 3366 3391 
z
" transform="scale(0.015625)"/>
      <path id="DejaVuSans-Bold-4b" d="M 4056 2131 
L 4056 0 
L 2931 0 
L 2931 347 
L 2931 1625 
Q 2931 2084 2911 2256 
Q 2891 2428 2841 2509 
Q 2775 2619 2662 2680 
Q 2550 2741 2406 2741 
Q 2056 2741 1856 2470 
Q 1656 2200 1656 1722 
L 1656 0 
L 538 0 
L 538 4863 
L 1656 4863 
L 1656 2988 
Q 1909 3294 2193 3439 
Q 2478 3584 2822 3584 
Q 3428 3584 3742 3212 
Q 4056 2841 4056 2131 
z
" transform="scale(0.015625)"/>
      <path id="DejaVuSans-Bold-47" d="M 2919 2988 
L 2919 4863 
L 4044 4863 
L 4044 0 
L 2919 0 
L 2919 506 
Q 2688 197 2409 53 
Q 2131 -91 1766 -91 
Q 1119 -91 703 423 
Q 288 938 288 1747 
Q 288 2556 703 3070 
Q 1119 3584 1766 3584 
Q 2128 3584 2408 3439 
Q 2688 3294 2919 2988 
z
M 2181 722 
Q 2541 722 2730 984 
Q 2919 1247 2919 1747 
Q 2919 2247 2730 2509 
Q 2541 2772 2181 2772 
Q 1825 2772 1636 2509 
Q 1447 2247 1447 1747 
Q 1447 1247 1636 984 
Q 1825 722 2181 722 
z
" transform="scale(0.015625)"/>
      <path id="DejaVuSans-Bold-57" d="M 1759 4494 
L 1759 3500 
L 2913 3500 
L 2913 2700 
L 1759 2700 
L 1759 1216 
Q 1759 972 1856 886 
Q 1953 800 2241 800 
L 2816 800 
L 2816 0 
L 1856 0 
Q 1194 0 917 276 
Q 641 553 641 1216 
L 641 2700 
L 84 2700 
L 84 3500 
L 641 3500 
L 641 4494 
L 1759 4494 
z
" transform="scale(0.015625)"/>
      <path id="DejaVuSans-Bold-5a" d="M 225 3500 
L 1313 3500 
L 1900 1088 
L 2491 3500 
L 3425 3500 
L 4013 1113 
L 4603 3500 
L 5691 3500 
L 4769 0 
L 3547 0 
L 2956 2406 
L 2369 0 
L 1147 0 
L 225 3500 
z
" transform="scale(0.015625)"/>
      <path id="DejaVuSans-Bold-5c" d="M 78 3500 
L 1197 3500 
L 2138 1125 
L 2938 3500 
L 4056 3500 
L 2584 -331 
Q 2363 -916 2067 -1148 
Q 1772 -1381 1288 -1381 
L 641 -1381 
L 641 -647 
L 991 -647 
Q 1275 -647 1404 -556 
Q 1534 -466 1606 -231 
L 1638 -134 
L 78 3500 
z
" transform="scale(0.015625)"/>
      <path id="DejaVuSans-Bold-56" d="M 3272 3391 
L 3272 2541 
Q 2913 2691 2578 2766 
Q 2244 2841 1947 2841 
Q 1628 2841 1473 2761 
Q 1319 2681 1319 2516 
Q 1319 2381 1436 2309 
Q 1553 2238 1856 2203 
L 2053 2175 
Q 2913 2066 3209 1816 
Q 3506 1566 3506 1031 
Q 3506 472 3093 190 
Q 2681 -91 1863 -91 
Q 1516 -91 1145 -36 
Q 775 19 384 128 
L 384 978 
Q 719 816 1070 734 
Q 1422 653 1784 653 
Q 2113 653 2278 743 
Q 2444 834 2444 1013 
Q 2444 1163 2330 1236 
Q 2216 1309 1875 1350 
L 1678 1375 
Q 931 1469 631 1722 
Q 331 1975 331 2491 
Q 331 3047 712 3315 
Q 1094 3584 1881 3584 
Q 2191 3584 2531 3537 
Q 2872 3491 3272 3391 
z
" transform="scale(0.015625)"/>
     </defs>
     <use xlink:href="#DejaVuSans-Bold-28"/>
     <use xlink:href="#DejaVuSans-Bold-5b" transform="translate(68.3125 0)"/>
     <use xlink:href="#DejaVuSans-Bold-44" transform="translate(132.8125 0)"/>
     <use xlink:href="#DejaVuSans-Bold-50" transform="translate(200.296875 0)"/>
     <use xlink:href="#DejaVuSans-Bold-53" transform="translate(304.5 0)"/>
     <use xlink:href="#DejaVuSans-Bold-4f" transform="translate(376.078125 0)"/>
     <use xlink:href="#DejaVuSans-Bold-48" transform="translate(410.359375 0)"/>
     <use xlink:href="#DejaVuSans-Bold-3" transform="translate(478.1875 0)"/>
     <use xlink:href="#DejaVuSans-Bold-32" transform="translate(513 0)"/>
     <use xlink:href="#DejaVuSans-Bold-35" transform="translate(598.015625 0)"/>
     <use xlink:href="#DejaVuSans-Bold-24" transform="translate(675.015625 0)"/>
     <use xlink:href="#DejaVuSans-Bold-1d" transform="translate(754.265625 0)"/>
     <use xlink:href="#DejaVuSans-Bold-3" transform="translate(794.25 0)"/>
     <use xlink:href="#DejaVuSans-Bold-2e" transform="translate(829.0625 0)"/>
     <use xlink:href="#DejaVuSans-Bold-28" transform="translate(906.546875 0)"/>
     <use xlink:href="#DejaVuSans-Bold-2a" transform="translate(974.859375 0)"/>
     <use xlink:href="#DejaVuSans-Bold-2a" transform="translate(1056.9375 0)"/>
     <use xlink:href="#DejaVuSans-Bold-3" transform="translate(1139.015625 0)"/>
     <use xlink:href="#DejaVuSans-Bold-48" transform="translate(1173.828125 0)"/>
     <use xlink:href="#DejaVuSans-Bold-51" transform="translate(1241.65625 0)"/>
     <use xlink:href="#DejaVuSans-Bold-55" transform="translate(1312.84375 0)"/>
     <use xlink:href="#DejaVuSans-Bold-4c" transform="translate(1362.15625 0)"/>
     <use xlink:href="#DejaVuSans-Bold-46" transform="translate(1396.4375 0)"/>
     <use xlink:href="#DejaVuSans-Bold-4b" transform="translate(1455.71875 0)"/>
     <use xlink:href="#DejaVuSans-Bold-48" transform="translate(1526.90625 0)"/>
     <use xlink:href="#DejaVuSans-Bold-47" transform="translate(1594.734375 0)"/>
     <use xlink:href="#DejaVuSans-Bold-3" transform="translate(1666.3125 0)"/>
     <use xlink:href="#DejaVuSans-Bold-53" transform="translate(1701.125 0)"/>
     <use xlink:href="#DejaVuSans-Bold-44" transform="translate(1772.703125 0)"/>
     <use xlink:href="#DejaVuSans-Bold-57" transform="translate(1840.1875 0)"/>
     <use xlink:href="#DejaVuSans-Bold-4b" transform="translate(1887.984375 0)"/>
     <use xlink:href="#DejaVuSans-Bold-5a" transform="translate(1959.171875 0)"/>
     <use xlink:href="#DejaVuSans-Bold-44" transform="translate(2051.5625 0)"/>
     <use xlink:href="#DejaVuSans-Bold-5c" transform="translate(2115.96875 0)"/>
     <use xlink:href="#DejaVuSans-Bold-56" transform="translate(2181.15625 0)"/>
    </g>
   </g>
   <g id="legend_1">
    <g id="patch_13">
     <path d="M 522.84 391.213672 
L 703.95875 391.213672 
L 703.95875 328.810547 
L 522.84 328.810547 
z
" style="fill: #ffffff; opacity: 0.8; stroke: #cccccc; stroke-linejoin: miter"/>
    </g>
    <g id="text_24">
     <!-- Hierarchy level 1 -->
     <g transform="translate(579.465 338.089297) scale(0.08 -0.08)">
      <use xlink:href="#DejaVuSans-2b"/>
      <use xlink:href="#DejaVuSans-4c" transform="translate(75.203125 0)"/>
      <use xlink:href="#DejaVuSans-48" transform="translate(102.984375 0)"/>
      <use xlink:href="#DejaVuSans-55" transform="translate(164.515625 0)"/>
      <use xlink:href="#DejaVuSans-44" transform="translate(205.625 0)"/>
      <use xlink:href="#DejaVuSans-55" transform="translate(266.90625 0)"/>
      <use xlink:href="#DejaVuSans-46" transform="translate(305.8125 0)"/>
      <use xlink:href="#DejaVuSans-4b" transform="translate(360.796875 0)"/>
      <use xlink:href="#DejaVuSans-5c" transform="translate(424.171875 0)"/>
      <use xlink:href="#DejaVuSans-3" transform="translate(483.359375 0)"/>
      <use xlink:href="#DejaVuSans-4f" transform="translate(515.140625 0)"/>
      <use xlink:href="#DejaVuSans-48" transform="translate(542.921875 0)"/>
      <use xlink:href="#DejaVuSans-59" transform="translate(604.453125 0)"/>
      <use xlink:href="#DejaVuSans-48" transform="translate(663.640625 0)"/>
      <use xlink:href="#DejaVuSans-4f" transform="translate(725.171875 0)"/>
      <use xlink:href="#DejaVuSans-3" transform="translate(752.953125 0)"/>
      <use xlink:href="#DejaVuSans-14" transform="translate(784.734375 0)"/>
     </g>
    </g>
    <g id="patch_14">
     <path d="M 526.04 350.089922 
L 542.04 350.089922 
L 542.04 344.489922 
L 526.04 344.489922 
z
"/>
    </g>
    <g id="text_25">
     <!-- Cellular Processes -->
     <g transform="translate(548.44 350.089922) scale(0.08 -0.08)">
      <defs>
       <path id="DejaVuSans-33" d="M 1259 4147 
L 1259 2394 
L 2053 2394 
Q 2494 2394 2734 2622 
Q 2975 2850 2975 3272 
Q 2975 3691 2734 3919 
Q 2494 4147 2053 4147 
L 1259 4147 
z
M 628 4666 
L 2053 4666 
Q 2838 4666 3239 4311 
Q 3641 3956 3641 3272 
Q 3641 2581 3239 2228 
Q 2838 1875 2053 1875 
L 1259 1875 
L 1259 0 
L 628 0 
L 628 4666 
z
" transform="scale(0.015625)"/>
      </defs>
      <use xlink:href="#DejaVuSans-26"/>
      <use xlink:href="#DejaVuSans-48" transform="translate(69.828125 0)"/>
      <use xlink:href="#DejaVuSans-4f" transform="translate(131.359375 0)"/>
      <use xlink:href="#DejaVuSans-4f" transform="translate(159.140625 0)"/>
      <use xlink:href="#DejaVuSans-58" transform="translate(186.921875 0)"/>
      <use xlink:href="#DejaVuSans-4f" transform="translate(250.296875 0)"/>
      <use xlink:href="#DejaVuSans-44" transform="translate(278.078125 0)"/>
      <use xlink:href="#DejaVuSans-55" transform="translate(339.359375 0)"/>
      <use xlink:href="#DejaVuSans-3" transform="translate(380.46875 0)"/>
      <use xlink:href="#DejaVuSans-33" transform="translate(412.25 0)"/>
      <use xlink:href="#DejaVuSans-55" transform="translate(470.796875 0)"/>
      <use xlink:href="#DejaVuSans-52" transform="translate(509.703125 0)"/>
      <use xlink:href="#DejaVuSans-46" transform="translate(570.890625 0)"/>
      <use xlink:href="#DejaVuSans-48" transform="translate(625.875 0)"/>
      <use xlink:href="#DejaVuSans-56" transform="translate(687.40625 0)"/>
      <use xlink:href="#DejaVuSans-56" transform="translate(739.5 0)"/>
      <use xlink:href="#DejaVuSans-48" transform="translate(791.59375 0)"/>
      <use xlink:href="#DejaVuSans-56" transform="translate(853.125 0)"/>
     </g>
    </g>
    <g id="patch_15">
     <path d="M 526.04 362.090547 
L 542.04 362.090547 
L 542.04 356.490547 
L 526.04 356.490547 
z
" style="fill: #e69f00"/>
    </g>
    <g id="text_26">
     <!-- Genetic Information Processing -->
     <g transform="translate(548.44 362.090547) scale(0.08 -0.08)">
      <defs>
       <path id="DejaVuSans-2a" d="M 3809 666 
L 3809 1919 
L 2778 1919 
L 2778 2438 
L 4434 2438 
L 4434 434 
Q 4069 175 3628 42 
Q 3188 -91 2688 -91 
Q 1594 -91 976 548 
Q 359 1188 359 2328 
Q 359 3472 976 4111 
Q 1594 4750 2688 4750 
Q 3144 4750 3555 4637 
Q 3966 4525 4313 4306 
L 4313 3634 
Q 3963 3931 3569 4081 
Q 3175 4231 2741 4231 
Q 1884 4231 1454 3753 
Q 1025 3275 1025 2328 
Q 1025 1384 1454 906 
Q 1884 428 2741 428 
Q 3075 428 3337 486 
Q 3600 544 3809 666 
z
" transform="scale(0.015625)"/>
       <path id="DejaVuSans-2c" d="M 628 4666 
L 1259 4666 
L 1259 0 
L 628 0 
L 628 4666 
z
" transform="scale(0.015625)"/>
       <path id="DejaVuSans-49" d="M 2375 4863 
L 2375 4384 
L 1825 4384 
Q 1516 4384 1395 4259 
Q 1275 4134 1275 3809 
L 1275 3500 
L 2222 3500 
L 2222 3053 
L 1275 3053 
L 1275 0 
L 697 0 
L 697 3053 
L 147 3053 
L 147 3500 
L 697 3500 
L 697 3744 
Q 697 4328 969 4595 
Q 1241 4863 1831 4863 
L 2375 4863 
z
" transform="scale(0.015625)"/>
      </defs>
      <use xlink:href="#DejaVuSans-2a"/>
      <use xlink:href="#DejaVuSans-48" transform="translate(77.484375 0)"/>
      <use xlink:href="#DejaVuSans-51" transform="translate(139.015625 0)"/>
      <use xlink:href="#DejaVuSans-48" transform="translate(202.390625 0)"/>
      <use xlink:href="#DejaVuSans-57" transform="translate(263.921875 0)"/>
      <use xlink:href="#DejaVuSans-4c" transform="translate(303.125 0)"/>
      <use xlink:href="#DejaVuSans-46" transform="translate(330.90625 0)"/>
      <use xlink:href="#DejaVuSans-3" transform="translate(385.890625 0)"/>
      <use xlink:href="#DejaVuSans-2c" transform="translate(417.671875 0)"/>
      <use xlink:href="#DejaVuSans-51" transform="translate(447.171875 0)"/>
      <use xlink:href="#DejaVuSans-49" transform="translate(510.546875 0)"/>
      <use xlink:href="#DejaVuSans-52" transform="translate(545.75 0)"/>
      <use xlink:href="#DejaVuSans-55" transform="translate(606.9375 0)"/>
      <use xlink:href="#DejaVuSans-50" transform="translate(646.296875 0)"/>
      <use xlink:href="#DejaVuSans-44" transform="translate(743.703125 0)"/>
      <use xlink:href="#DejaVuSans-57" transform="translate(804.984375 0)"/>
      <use xlink:href="#DejaVuSans-4c" transform="translate(844.1875 0)"/>
      <use xlink:href="#DejaVuSans-52" transform="translate(871.96875 0)"/>
      <use xlink:href="#DejaVuSans-51" transform="translate(933.15625 0)"/>
      <use xlink:href="#DejaVuSans-3" transform="translate(996.53125 0)"/>
      <use xlink:href="#DejaVuSans-33" transform="translate(1028.3125 0)"/>
      <use xlink:href="#DejaVuSans-55" transform="translate(1086.859375 0)"/>
      <use xlink:href="#DejaVuSans-52" transform="translate(1125.765625 0)"/>
      <use xlink:href="#DejaVuSans-46" transform="translate(1186.953125 0)"/>
      <use xlink:href="#DejaVuSans-48" transform="translate(1241.9375 0)"/>
      <use xlink:href="#DejaVuSans-56" transform="translate(1303.46875 0)"/>
      <use xlink:href="#DejaVuSans-56" transform="translate(1355.5625 0)"/>
      <use xlink:href="#DejaVuSans-4c" transform="translate(1407.65625 0)"/>
      <use xlink:href="#DejaVuSans-51" transform="translate(1435.4375 0)"/>
      <use xlink:href="#DejaVuSans-4a" transform="translate(1498.8125 0)"/>
     </g>
    </g>
    <g id="patch_16">
     <path d="M 526.04 374.091172 
L 542.04 374.091172 
L 542.04 368.491172 
L 526.04 368.491172 
z
" style="fill: #56b4e9"/>
    </g>
    <g id="text_27">
     <!-- Organismal Systems -->
     <g transform="translate(548.44 374.091172) scale(0.08 -0.08)">
      <defs>
       <path id="DejaVuSans-32" d="M 2522 4238 
Q 1834 4238 1429 3725 
Q 1025 3213 1025 2328 
Q 1025 1447 1429 934 
Q 1834 422 2522 422 
Q 3209 422 3611 934 
Q 4013 1447 4013 2328 
Q 4013 3213 3611 3725 
Q 3209 4238 2522 4238 
z
M 2522 4750 
Q 3503 4750 4090 4092 
Q 4678 3434 4678 2328 
Q 4678 1225 4090 567 
Q 3503 -91 2522 -91 
Q 1538 -91 948 565 
Q 359 1222 359 2328 
Q 359 3434 948 4092 
Q 1538 4750 2522 4750 
z
" transform="scale(0.015625)"/>
       <path id="DejaVuSans-36" d="M 3425 4513 
L 3425 3897 
Q 3066 4069 2747 4153 
Q 2428 4238 2131 4238 
Q 1616 4238 1336 4038 
Q 1056 3838 1056 3469 
Q 1056 3159 1242 3001 
Q 1428 2844 1947 2747 
L 2328 2669 
Q 3034 2534 3370 2195 
Q 3706 1856 3706 1288 
Q 3706 609 3251 259 
Q 2797 -91 1919 -91 
Q 1588 -91 1214 -16 
Q 841 59 441 206 
L 441 856 
Q 825 641 1194 531 
Q 1563 422 1919 422 
Q 2459 422 2753 634 
Q 3047 847 3047 1241 
Q 3047 1584 2836 1778 
Q 2625 1972 2144 2069 
L 1759 2144 
Q 1053 2284 737 2584 
Q 422 2884 422 3419 
Q 422 4038 858 4394 
Q 1294 4750 2059 4750 
Q 2388 4750 2728 4690 
Q 3069 4631 3425 4513 
z
" transform="scale(0.015625)"/>
      </defs>
      <use xlink:href="#DejaVuSans-32"/>
      <use xlink:href="#DejaVuSans-55" transform="translate(78.71875 0)"/>
      <use xlink:href="#DejaVuSans-4a" transform="translate(118.078125 0)"/>
      <use xlink:href="#DejaVuSans-44" transform="translate(181.5625 0)"/>
      <use xlink:href="#DejaVuSans-51" transform="translate(242.84375 0)"/>
      <use xlink:href="#DejaVuSans-4c" transform="translate(306.21875 0)"/>
      <use xlink:href="#DejaVuSans-56" transform="translate(334 0)"/>
      <use xlink:href="#DejaVuSans-50" transform="translate(386.09375 0)"/>
      <use xlink:href="#DejaVuSans-44" transform="translate(483.5 0)"/>
      <use xlink:href="#DejaVuSans-4f" transform="translate(544.78125 0)"/>
      <use xlink:href="#DejaVuSans-3" transform="translate(572.5625 0)"/>
      <use xlink:href="#DejaVuSans-36" transform="translate(604.34375 0)"/>
      <use xlink:href="#DejaVuSans-5c" transform="translate(667.828125 0)"/>
      <use xlink:href="#DejaVuSans-56" transform="translate(727.015625 0)"/>
      <use xlink:href="#DejaVuSans-57" transform="translate(779.109375 0)"/>
      <use xlink:href="#DejaVuSans-48" transform="translate(818.3125 0)"/>
      <use xlink:href="#DejaVuSans-50" transform="translate(879.84375 0)"/>
      <use xlink:href="#DejaVuSans-56" transform="translate(977.25 0)"/>
     </g>
    </g>
    <g id="patch_17">
     <path d="M 526.04 386.091797 
L 542.04 386.091797 
L 542.04 380.491797 
L 526.04 380.491797 
z
" style="fill: #009e73"/>
    </g>
    <g id="text_28">
     <!-- Environmental Information Processing -->
     <g transform="translate(548.44 386.091797) scale(0.08 -0.08)">
      <defs>
       <path id="DejaVuSans-28" d="M 628 4666 
L 3578 4666 
L 3578 4134 
L 1259 4134 
L 1259 2753 
L 3481 2753 
L 3481 2222 
L 1259 2222 
L 1259 531 
L 3634 531 
L 3634 0 
L 628 0 
L 628 4666 
z
" transform="scale(0.015625)"/>
      </defs>
      <use xlink:href="#DejaVuSans-28"/>
      <use xlink:href="#DejaVuSans-51" transform="translate(63.1875 0)"/>
      <use xlink:href="#DejaVuSans-59" transform="translate(126.5625 0)"/>
      <use xlink:href="#DejaVuSans-4c" transform="translate(185.75 0)"/>
      <use xlink:href="#DejaVuSans-55" transform="translate(213.53125 0)"/>
      <use xlink:href="#DejaVuSans-52" transform="translate(252.4375 0)"/>
      <use xlink:href="#DejaVuSans-51" transform="translate(313.625 0)"/>
      <use xlink:href="#DejaVuSans-50" transform="translate(377 0)"/>
      <use xlink:href="#DejaVuSans-48" transform="translate(474.40625 0)"/>
      <use xlink:href="#DejaVuSans-51" transform="translate(535.9375 0)"/>
      <use xlink:href="#DejaVuSans-57" transform="translate(599.3125 0)"/>
      <use xlink:href="#DejaVuSans-44" transform="translate(638.515625 0)"/>
      <use xlink:href="#DejaVuSans-4f" transform="translate(699.796875 0)"/>
      <use xlink:href="#DejaVuSans-3" transform="translate(727.578125 0)"/>
      <use xlink:href="#DejaVuSans-2c" transform="translate(759.359375 0)"/>
      <use xlink:href="#DejaVuSans-51" transform="translate(788.859375 0)"/>
      <use xlink:href="#DejaVuSans-49" transform="translate(852.234375 0)"/>
      <use xlink:href="#DejaVuSans-52" transform="translate(887.4375 0)"/>
      <use xlink:href="#DejaVuSans-55" transform="translate(948.625 0)"/>
      <use xlink:href="#DejaVuSans-50" transform="translate(987.984375 0)"/>
      <use xlink:href="#DejaVuSans-44" transform="translate(1085.390625 0)"/>
      <use xlink:href="#DejaVuSans-57" transform="translate(1146.671875 0)"/>
      <use xlink:href="#DejaVuSans-4c" transform="translate(1185.875 0)"/>
      <use xlink:href="#DejaVuSans-52" transform="translate(1213.65625 0)"/>
      <use xlink:href="#DejaVuSans-51" transform="translate(1274.84375 0)"/>
      <use xlink:href="#DejaVuSans-3" transform="translate(1338.21875 0)"/>
      <use xlink:href="#DejaVuSans-33" transform="translate(1370 0)"/>
      <use xlink:href="#DejaVuSans-55" transform="translate(1428.546875 0)"/>
      <use xlink:href="#DejaVuSans-52" transform="translate(1467.453125 0)"/>
      <use xlink:href="#DejaVuSans-46" transform="translate(1528.640625 0)"/>
      <use xlink:href="#DejaVuSans-48" transform="translate(1583.625 0)"/>
      <use xlink:href="#DejaVuSans-56" transform="translate(1645.15625 0)"/>
      <use xlink:href="#DejaVuSans-56" transform="translate(1697.25 0)"/>
      <use xlink:href="#DejaVuSans-4c" transform="translate(1749.34375 0)"/>
      <use xlink:href="#DejaVuSans-51" transform="translate(1777.125 0)"/>
      <use xlink:href="#DejaVuSans-4a" transform="translate(1840.5 0)"/>
     </g>
    </g>
   </g>
  </g>
 </g>
 <defs>
  <clipPath id="p2be5646642">
   <rect x="188.25875" y="22.318125" width="519.7" height="372.895547"/>
  </clipPath>
 </defs>
</svg>
